<!DOCTYPE svg PUBLIC "-//W3C//DTD SVG 1.1//EN" "http://www.w3.org/Graphics/SVG/1.1/DTD/svg11.dtd">
<!-- Uploaded to: SVG Repo, www.svgrepo.com, Transformed by: SVG Repo Mixer Tools -->
<svg fill="#000000" width="201px" height="201px" viewBox="-2.4 -2.4 28.80 28.80" id="hurricane" data-name="Line Color" xmlns="http://www.w3.org/2000/svg" class="icon line-color">
<g id="SVGRepo_bgCarrier" stroke-width="0"/>
<g id="SVGRepo_tracerCarrier" stroke-linecap="round" stroke-linejoin="round" stroke="#CCCCCC" stroke-width="0.384"/>
<g id="SVGRepo_iconCarrier">
<path id="primary" d="M8,12a9,9,0,0,1,9-9" style="fill: none; stroke: #000000; stroke-linecap: round; stroke-linejoin: round; stroke-width:1.536;"/>
<path id="primary-2" data-name="primary" d="M12,8a9,9,0,0,1,9,9" style="fill: none; stroke: #000000; stroke-linecap: round; stroke-linejoin: round; stroke-width:1.536;"/>
<path id="primary-3" data-name="primary" d="M16,12a9,9,0,0,1-9,9" style="fill: none; stroke: #000000; stroke-linecap: round; stroke-linejoin: round; stroke-width:1.536;"/>
<path id="primary-4" data-name="primary" d="M12,16A9,9,0,0,1,3,7" style="fill: none; stroke: #000000; stroke-linecap: round; stroke-linejoin: round; stroke-width:1.536;"/>
<path id="primary-5" data-name="primary" d="M9.17,14.83A9,9,0,0,1,6.6,7.5" style="fill: none; stroke: #000000; stroke-linecap: round; stroke-linejoin: round; stroke-width:1.536;"/>
<path id="primary-6" data-name="primary" d="M14.83,14.83A9,9,0,0,1,7.5,17.4" style="fill: none; stroke: #000000; stroke-linecap: round; stroke-linejoin: round; stroke-width:1.536;"/>
<path id="primary-7" data-name="primary" d="M14.83,9.17A9,9,0,0,1,17.4,16.5" style="fill: none; stroke: #000000; stroke-linecap: round; stroke-linejoin: round; stroke-width:1.536;"/>
<path id="primary-8" data-name="primary" d="M9.17,9.17A9,9,0,0,1,16.5,6.6" style="fill: none; stroke: #000000; stroke-linecap: round; stroke-linejoin: round; stroke-width:1.536;"/>
<circle id="secondary" cx="12" cy="12" r="4" style="fill: none; stroke: #000000; stroke-linecap: round; stroke-linejoin: round; stroke-width:1.536;"/>
</g>
</svg>